<?xml version="1.0" standalone="no"?>
<!DOCTYPE svg PUBLIC "-//W3C//DTD SVG 20010904//EN"
 "http://www.w3.org/TR/2001/REC-SVG-20010904/DTD/svg10.dtd">
<svg version="1.0" xmlns="http://www.w3.org/2000/svg"
 width="1024.000000pt" height="1024.000000pt" viewBox="0 0 1024.000000 1024.000000"
 preserveAspectRatio="xMidYMid meet">

<g transform="translate(0.000000,1024.000000) scale(0.100000,-0.100000)"
fill="#000000" stroke="none">
<path d="M6899 7157 c-107 -40 -135 -80 -126 -183 16 -210 247 -299 358 -138
85 124 78 216 -24 298 -33 26 -48 31 -105 33 -39 2 -82 -3 -103 -10z m114
-205 c-29 -35 -51 -54 -55 -48 -10 15 -10 28 0 22 5 -3 28 15 52 39 24 25 46
45 47 45 2 0 -18 -26 -44 -58z"/>
<path d="M4125 7019 c-143 -18 -349 -109 -485 -214 -115 -89 -225 -229 -294
-376 -40 -83 -81 -237 -96 -355 -6 -46 -10 -451 -10 -995 -1 -889 0 -921 20
-1019 32 -159 80 -271 173 -410 65 -96 115 -149 206 -222 136 -109 350 -199
519 -218 108 -12 1710 -13 1877 -1 250 19 502 134 690 317 101 97 191 259 246
439 l34 110 2 831 3 831 -169 -163 -169 -164 -7 -58 c-4 -31 -11 -311 -15
-622 -7 -478 -10 -574 -24 -622 -56 -196 -202 -380 -368 -462 -37 -19 -109
-44 -160 -56 -92 -21 -106 -21 -1003 -18 l-910 3 -80 30 c-257 97 -403 250
-476 496 -21 72 -22 94 -30 859 -11 922 -5 1096 38 1210 72 192 194 335 353
415 148 74 98 70 1040 67 656 -2 848 -6 857 -15 10 -10 5 -22 -26 -60 -36 -43
-69 -112 -59 -122 11 -11 159 112 303 253 88 86 181 173 207 192 26 19 48 38
48 41 0 11 -90 46 -173 68 -76 20 -101 20 -1040 19 -529 0 -989 -4 -1022 -9z
m48 -16 c-7 -2 -21 -2 -30 0 -10 3 -4 5 12 5 17 0 24 -2 18 -5z"/>
<path d="M6517 6659 c-32 -22 -57 -42 -57 -44 0 -2 28 13 63 34 35 22 72 41
82 44 16 4 14 5 -6 6 -16 1 -48 -15 -82 -40z"/>
<path d="M6792 6606 c32 -32 55 -63 51 -70 -3 -6 -3 -8 2 -4 5 5 17 -6 27 -23
30 -49 86 -215 76 -225 -3 -3 -14 21 -23 53 -10 32 -24 72 -31 90 -8 17 -14
36 -14 43 0 6 -13 16 -30 21 -16 6 -30 15 -30 21 0 5 -5 6 -10 3 -11 -7 -76
12 -97 28 -9 6 -13 5 -13 -4 0 -12 -2 -12 -9 0 -6 9 -15 11 -27 6 -11 -4 -38
-7 -61 -6 -25 2 -43 -2 -43 -8 0 -6 -6 -11 -14 -11 -7 0 -16 -9 -19 -19 -6
-23 -47 -25 -47 -3 0 9 -6 12 -16 8 -9 -3 -18 -6 -20 -6 -2 0 -4 -7 -4 -15 0
-15 -42 -31 -58 -21 -4 2 -15 -4 -22 -15 -8 -10 -20 -19 -27 -19 -7 0 -13 -6
-13 -14 0 -18 -38 -15 -50 4 -5 9 -5 20 3 30 6 8 -12 -7 -41 -34 -28 -27 -49
-53 -46 -58 3 -4 -1 -5 -9 -2 -14 5 -29 -17 -31 -45 -1 -8 -7 -16 -15 -19 -10
-3 -12 0 -7 14 7 17 6 17 -14 -1 -23 -21 -25 -26 -7 -23 6 2 12 -3 11 -9 -1
-7 -2 -22 -2 -34 -2 -14 -7 -19 -17 -15 -10 4 -15 -1 -15 -14 0 -15 -6 -19
-22 -17 -17 1 -24 -4 -26 -20 -4 -30 -21 -41 -72 -49 l-45 -7 53 52 c29 28 58
48 64 45 7 -4 8 -2 4 4 -4 8 3 16 18 22 14 5 26 17 26 27 0 14 -5 12 -27 -9
-16 -13 -86 -78 -158 -142 -71 -65 -159 -150 -195 -189 -36 -40 -96 -101 -135
-137 -38 -36 -143 -136 -235 -224 -91 -87 -175 -163 -187 -169 -46 -21 -74 0
-297 226 -120 122 -201 200 -180 174 22 -27 72 -82 111 -124 40 -41 80 -88 90
-104 10 -16 21 -29 26 -29 4 0 5 -4 2 -10 -3 -6 1 -7 9 -4 15 6 22 -11 17 -39
0 -4 2 -6 6 -6 23 4 32 -4 38 -30 3 -16 13 -35 21 -41 7 -7 11 -16 8 -21 -3
-5 2 -9 11 -9 9 0 13 -4 10 -10 -3 -6 1 -7 9 -4 10 4 16 1 16 -7 0 -9 3 -10 8
-3 8 12 53 14 46 2 -3 -5 -29 -26 -57 -47 -29 -22 -130 -116 -224 -210 -176
-175 -230 -217 -103 -81 50 53 66 77 57 83 -8 6 -6 7 7 3 13 -5 17 -2 13 9 -6
15 17 45 34 45 6 0 3 -7 -5 -16 -9 -8 -16 -18 -16 -22 0 -4 12 5 25 21 13 15
22 34 19 42 -4 10 0 15 11 15 10 0 24 8 32 18 8 9 11 11 7 3 -5 -10 -3 -12 6
-6 10 6 9 11 -5 22 -11 7 -13 13 -7 13 7 0 12 7 12 15 0 8 -8 15 -18 15 -10 0
-24 9 -32 20 -8 11 -24 20 -35 20 -16 0 -17 2 -5 10 11 7 4 10 -27 10 -24 0
-43 5 -43 10 0 6 -9 10 -20 10 -11 0 -20 6 -20 13 0 8 -11 19 -25 25 -33 15
-35 15 -35 -3 0 -8 -8 -15 -18 -15 -10 0 -23 -5 -29 -11 -7 -7 -15 -5 -27 6
-26 26 -67 33 -136 23 -79 -11 -110 -5 -110 22 0 17 -7 20 -39 20 -22 0 -41 5
-43 12 -2 6 -25 11 -53 11 -27 0 -42 3 -34 6 11 4 13 14 8 36 l-7 30 -1 -27
c-1 -33 -21 -38 -21 -5 0 13 -3 17 -8 11 -4 -6 -17 -14 -29 -18 -17 -6 -23 -3
-23 8 0 22 -18 20 -22 -1 -3 -14 -12 -17 -46 -15 -25 2 -42 -1 -42 -7 0 -19
-40 -12 -41 7 0 11 -2 13 -6 4 -9 -23 -32 22 -39 74 -3 27 -7 84 -8 127 -2 43
-8 83 -15 90 -16 16 -14 -87 3 -185 27 -148 75 -209 490 -623 160 -160 318
-319 351 -355 78 -84 251 -240 303 -275 54 -35 143 -45 193 -20 19 9 205 189
414 399 209 211 562 562 785 782 297 292 433 434 508 528 106 134 114 153 88
204 -8 16 -22 57 -31 92 -35 133 -109 256 -188 312 -20 14 -10 0 25 -36z
m-550 -208 c-9 -18 -18 -35 -19 -37 -1 -1 -6 0 -12 3 -6 4 0 19 16 36 34 38
36 38 15 -2z m-317 -288 c3 -5 1 -10 -4 -10 -6 0 -11 5 -11 10 0 6 2 10 4 10
3 0 8 -4 11 -10z m-33 -27 c-6 -3 -10 -9 -6 -14 3 -5 0 -9 -5 -9 -6 0 -11 4
-11 8 0 12 23 32 29 25 3 -3 0 -8 -7 -10z m-49 -51 c-10 -10 -20 -17 -22 -16
-6 5 20 34 30 34 5 0 1 -8 -8 -18z m-1213 -1116 c0 -2 -7 -9 -15 -16 -13 -11
-14 -10 -9 4 5 14 24 23 24 12z"/>
<path d="M2271 6304 c0 -11 3 -14 6 -6 3 7 2 16 -1 19 -3 4 -6 -2 -5 -13z"/>
<path d="M2269 6193 c-1 -69 -4 -91 -14 -117 -6 -14 -5 -17 3 -12 8 5 10 -2 6
-26 -9 -54 -13 -61 -34 -55 -13 3 -25 -5 -41 -28 -13 -18 -34 -40 -48 -49 -14
-8 -20 -16 -13 -16 14 0 17 -40 2 -40 -5 0 -10 -9 -10 -20 0 -13 -7 -20 -18
-20 -15 0 -18 -6 -14 -32 5 -31 4 -32 -13 -18 -16 14 -17 13 -11 -8 5 -13 3
-22 -3 -22 -6 0 -11 4 -11 9 0 5 -7 11 -15 15 -19 7 -19 1 0 -18 12 -11 13
-21 4 -42 -8 -23 -12 -26 -20 -14 -7 11 -8 6 -3 -14 5 -22 4 -27 -6 -21 -9 5
-11 4 -6 -4 4 -6 12 -9 17 -6 5 4 9 -1 9 -9 0 -9 -8 -16 -17 -16 -16 -1 -16
-2 1 -15 11 -8 15 -15 10 -15 -6 0 -11 -14 -11 -31 0 -18 -6 -35 -16 -40 -12
-7 -14 -20 -10 -62 4 -41 2 -56 -11 -66 -9 -7 -16 -25 -16 -40 0 -14 -4 -32
-9 -40 -6 -8 -6 -24 0 -38 6 -17 3 -32 -13 -60 -12 -20 -17 -34 -11 -30 7 4
16 -1 22 -11 14 -27 3 -34 -24 -16 -16 10 -25 12 -30 5 -3 -6 0 -11 8 -11 11
0 13 -10 10 -42 -6 -52 -13 -62 -14 -22 l-1 29 -7 -30 c-9 -36 -3 -57 13 -48
6 3 6 1 -1 -8 -7 -7 -13 -23 -13 -36 0 -13 -4 -23 -10 -23 -5 0 -10 -4 -10
-10 0 -5 8 -10 18 -10 16 -1 16 -1 0 -11 -21 -12 -23 -39 -5 -58 10 -11 10
-14 0 -18 -20 -7 -15 -23 7 -23 11 0 20 -4 20 -10 0 -5 -7 -10 -17 -10 -14 0
-14 -2 2 -20 14 -15 15 -23 6 -34 -6 -7 -8 -22 -4 -31 4 -13 3 -16 -5 -11 -8
5 -12 -3 -12 -23 0 -18 5 -31 13 -31 8 0 12 -14 12 -40 0 -33 -2 -38 -11 -25
-16 22 -24 19 -24 -11 0 -14 4 -23 10 -19 6 3 10 -3 10 -14 0 -14 -6 -21 -20
-21 -21 0 -28 -16 -9 -22 9 -3 9 -10 -1 -27 -6 -13 -8 -21 -3 -18 5 3 9 -3 9
-13 0 -10 -3 -17 -6 -15 -3 2 -12 0 -20 -6 -11 -6 -7 -9 15 -10 17 -1 23 -3
13 -6 -23 -6 -30 -30 -15 -54 10 -16 9 -21 -1 -28 -7 -4 -12 -12 -11 -17 4
-21 -2 -35 -11 -29 -5 3 -10 -3 -10 -15 0 -13 4 -19 12 -14 7 5 8 3 2 -7 -5
-8 -7 -22 -6 -31 2 -10 -2 -18 -7 -18 -6 0 -11 -9 -11 -20 0 -11 5 -20 11 -20
8 0 7 -6 -2 -17 -12 -14 -12 -16 0 -8 11 6 12 5 5 -6 -5 -8 -10 -34 -11 -59
-1 -25 -4 -54 -5 -65 -2 -16 2 -20 22 -18 22 2 23 1 7 -8 -9 -5 -22 -7 -27 -4
-6 3 -10 -1 -10 -9 0 -9 4 -16 9 -16 5 0 11 -9 14 -20 3 -13 0 -20 -9 -20 -8
0 -14 -9 -14 -19 0 -11 -6 -22 -12 -24 -10 -4 -10 -6 0 -6 7 -1 10 -5 7 -11
-3 -5 -1 -10 5 -10 7 0 10 -13 9 -33 -2 -18 0 -38 5 -45 4 -7 2 -12 -5 -12 -7
0 -3 -10 9 -23 21 -22 21 -25 7 -55 -18 -34 -16 -74 4 -110 14 -27 7 -57 -11
-46 -6 4 -4 -3 5 -16 12 -17 14 -28 6 -43 -6 -10 -9 -34 -7 -52 2 -18 -2 -37
-10 -44 -7 -7 -10 -21 -7 -32 5 -15 1 -19 -17 -20 l-23 0 23 -9 c12 -5 22 -18
22 -29 0 -31 22 -71 34 -64 6 4 5 0 -2 -9 -10 -13 -9 -17 10 -22 14 -5 18 -9
11 -13 -7 -2 -13 -11 -13 -19 0 -8 -4 -14 -8 -14 -5 0 -14 -11 -20 -25 -14
-31 -15 -46 -2 -25 7 10 10 11 10 2 0 -9 8 -8 28 5 l27 17 -19 -22 c-14 -16
-15 -22 -6 -22 9 0 7 -5 -6 -16 -12 -9 -15 -17 -8 -20 7 -3 10 -22 8 -44 -2
-22 0 -40 5 -40 12 0 20 -49 10 -56 -5 -3 -9 -10 -9 -15 0 -6 5 -7 10 -4 6 3
20 3 31 0 30 -10 3 -26 -31 -20 -14 3 -20 3 -13 -1 7 -3 10 -11 7 -19 -3 -7 9
-23 27 -36 l32 -22 -22 -18 c-12 -10 -16 -19 -10 -21 6 -2 13 -21 15 -41 3
-38 27 -73 42 -63 5 3 6 -9 4 -27 -4 -27 -3 -30 10 -20 12 11 17 9 26 -12 7
-15 8 -25 2 -25 -6 0 -10 7 -10 15 0 13 -2 14 -14 3 -12 -11 -10 -14 11 -22
21 -7 24 -13 19 -37 -4 -20 -1 -29 7 -29 7 0 20 -9 30 -20 9 -11 25 -20 36
-20 14 0 18 -5 14 -20 -3 -11 0 -20 6 -20 6 0 11 -4 11 -10 0 -5 -8 -7 -17 -4
-10 3 -7 -2 7 -10 14 -8 33 -15 43 -16 20 0 23 -16 5 -23 -8 -4 -4 -8 10 -12
12 -4 22 -15 23 -24 0 -12 2 -12 8 4 6 15 9 11 14 -23 6 -34 11 -42 28 -42 17
0 20 -5 17 -25 -6 -28 12 -48 39 -43 10 2 17 -2 16 -9 -2 -7 4 -13 13 -13 8 0
12 5 9 10 -3 6 1 10 9 10 9 0 16 -5 16 -11 0 -7 9 -9 21 -6 16 4 19 3 11 -5
-7 -7 -7 -19 -1 -35 5 -14 7 -28 4 -33 -3 -5 -1 -12 5 -15 6 -4 10 -3 9 2 -4
25 2 53 11 48 6 -4 8 -10 5 -15 -3 -4 12 -11 32 -15 21 -3 47 -13 58 -21 17
-13 18 -16 5 -24 -11 -7 -11 -10 -2 -10 7 0 11 -4 8 -9 -4 -5 3 -7 14 -4 21 6
28 -12 8 -20 -8 -2 -9 -8 -4 -13 5 -5 11 -4 13 4 7 18 33 14 33 -5 0 -15 2
-15 9 -4 8 12 12 13 26 1 9 -7 14 -19 11 -26 -4 -11 -2 -11 15 -1 16 10 21 9
28 -2 5 -8 16 -11 24 -8 9 3 21 -1 27 -9 7 -8 19 -14 26 -14 20 0 17 -18 -3
-23 -14 -4 -14 -5 3 -6 14 -1 24 7 29 22 l7 22 8 -25 c5 -17 8 -19 9 -7 1 22
6 22 33 -5 19 -19 22 -19 32 -5 11 14 14 13 36 -3 l24 -18 -30 5 c-16 3 -26 2
-22 -2 4 -4 32 -7 62 -6 49 1 54 -1 49 -19 -3 -11 0 -20 6 -20 6 0 11 7 11 15
0 20 26 19 34 -1 4 -9 4 -19 1 -22 -3 -3 -5 1 -5 8 0 7 -2 11 -5 8 -3 -3 -3
-13 1 -22 5 -14 9 -13 30 9 12 14 25 21 29 16 3 -6 -3 -14 -12 -20 -10 -5 -14
-13 -10 -17 5 -5 11 -3 15 3 4 7 27 11 55 9 28 -1 47 2 47 8 1 6 9 1 20 -12
10 -12 22 -22 27 -21 32 6 73 -3 73 -15 0 -8 -6 -17 -12 -19 -7 -3 3 -6 22 -6
25 -1 31 2 20 9 -18 11 -13 16 28 23 36 7 42 -5 17 -40 -10 -14 -12 -24 -5
-28 5 -3 10 0 10 8 0 7 11 20 25 27 18 10 24 19 20 34 -5 19 -4 19 6 -1 7 -13
17 -23 23 -23 6 0 22 -3 35 -7 14 -4 22 -2 18 3 -3 6 -2 16 4 24 7 13 9 13 9
0 0 -12 14 -16 63 -18 34 -1 71 -3 81 -4 14 -2 22 5 27 22 7 23 7 23 8 -7 1
-31 21 -59 21 -29 0 18 35 22 45 6 5 -8 11 -7 21 1 11 9 14 8 14 -5 0 -9 5
-16 10 -16 6 0 10 7 10 15 0 8 5 15 10 15 6 0 10 -4 10 -10 0 -5 7 -10 15 -10
8 0 15 4 15 9 0 5 32 11 70 13 57 2 70 0 70 -12 0 -13 1 -13 11 0 8 11 12 12
16 3 7 -18 33 -16 55 3 12 11 22 14 30 7 19 -13 77 -16 92 -4 8 7 23 7 44 2
26 -8 30 -7 26 7 -4 12 0 11 14 -5 l19 -22 11 22 c9 18 11 19 11 5 1 -10 5
-18 10 -18 5 0 17 -3 27 -7 12 -4 15 -3 10 5 -4 7 -1 12 8 12 9 0 16 -5 16
-11 0 -8 5 -8 15 1 12 10 15 10 15 -4 0 -9 7 -16 15 -16 8 0 15 6 15 14 0 11
12 14 48 13 26 -1 61 2 77 6 19 5 23 4 11 -1 -13 -6 -16 -11 -8 -16 6 -4 20
-3 30 3 11 6 24 6 35 -1 12 -6 28 -6 49 1 17 6 34 8 40 5 5 -3 16 0 25 8 14
11 15 10 9 -12 -6 -22 -5 -21 10 5 l17 29 10 -24 c8 -20 11 -22 14 -8 3 11 14
17 31 17 63 1 72 3 67 11 -3 4 2 10 10 13 9 4 12 1 8 -9 -3 -8 1 -14 11 -14 9
0 16 8 17 18 0 10 3 12 6 5 7 -18 28 -16 44 3 12 14 14 14 25 -1 7 -9 17 -14
23 -10 6 3 11 1 11 -5 0 -6 4 -8 10 -5 6 3 10 -1 10 -10 0 -13 4 -14 21 -4 14
7 18 14 11 18 -6 4 -7 12 -3 20 7 11 10 9 16 -8 4 -14 15 -21 32 -21 23 0 24
2 12 17 -13 15 -11 16 13 10 15 -4 30 -3 33 3 3 5 15 10 27 10 15 0 18 -4 14
-16 -5 -13 -3 -14 6 -7 7 6 28 10 46 8 18 -1 35 1 38 6 3 5 11 9 17 9 8 0 8
-3 -1 -9 -11 -6 -10 -10 4 -15 21 -8 23 -6 26 27 1 14 5 24 8 21 5 -6 6 -12 9
-39 2 -29 21 -14 22 18 0 24 2 27 8 13 7 -17 8 -17 23 -2 15 14 17 14 24 -2 4
-9 6 -20 6 -25 -1 -4 3 -7 9 -7 7 0 9 10 5 27 -5 21 -4 24 4 13 9 -13 11 -13
19 0 9 12 11 12 16 -2 4 -10 4 -22 0 -28 -3 -5 -2 -10 4 -10 5 0 13 9 16 20 7
21 47 29 42 9 -1 -6 3 -13 10 -16 7 -2 13 8 16 24 4 28 4 28 6 2 1 -22 5 -26
26 -21 14 2 22 9 19 14 -6 9 23 48 36 48 4 0 12 -11 19 -23 15 -28 41 -31 41
-5 0 20 25 25 34 6 3 -7 3 -3 0 10 -6 23 11 31 19 10 4 -10 8 -9 16 2 8 12 13
12 23 2 17 -17 48 -15 48 3 0 18 26 20 33 3 4 -10 8 -9 16 2 9 13 11 13 11 1
0 -12 3 -12 12 -3 7 7 26 12 43 12 23 0 27 3 15 10 -13 9 -13 11 0 20 21 14
42 12 79 -6 25 -13 35 -14 44 -5 9 9 8 11 -5 6 -11 -4 -20 1 -28 15 -6 11 -14
18 -18 16 -5 -3 -14 0 -22 5 -15 10 9 7 55 -6 29 -8 52 9 37 28 -11 12 -7 15
22 19 27 3 33 1 25 -8 -7 -8 -7 -14 1 -19 5 -3 10 -1 10 5 0 7 5 10 11 8 15
-5 96 72 104 100 6 22 25 31 25 12 0 -5 5 -10 10 -10 6 0 10 7 10 15 0 8 5 15
11 15 5 0 7 -4 4 -10 -3 -6 -1 -10 4 -10 6 0 11 5 11 11 0 14 41 48 58 49 8 0
27 14 43 31 16 18 43 34 60 38 16 3 29 11 27 16 -2 6 17 13 42 16 38 5 113 20
229 45 13 3 21 7 18 10 -2 3 -49 -4 -104 -15 -55 -12 -176 -26 -269 -31 -232
-15 -2848 -6 -2994 10 -293 31 -520 115 -730 270 -338 249 -504 557 -550 1019
-6 64 -10 600 -11 1402 0 715 -2 1299 -5 1299 -2 0 -4 -26 -5 -57z m-139 -407
c0 -3 -4 -8 -10 -11 -5 -3 -10 -1 -10 4 0 6 5 11 10 11 6 0 10 -2 10 -4z m-40
-81 c0 -8 -2 -15 -4 -15 -2 0 -6 7 -10 15 -3 8 -1 15 4 15 6 0 10 -7 10 -15z
m-180 -805 c-20 -13 -33 -13 -25 0 3 6 14 10 23 10 15 0 15 -2 2 -10z m-63
-796 c-3 -3 -12 -4 -19 -1 -8 3 -5 6 6 6 11 1 17 -2 13 -5z m-7 -24 c0 -5 -4
-10 -10 -10 -5 0 -10 5 -10 10 0 6 5 10 10 10 6 0 10 -4 10 -10z m0 -40 c0 -5
-2 -10 -4 -10 -3 0 -8 5 -11 10 -3 6 -1 10 4 10 6 0 11 -4 11 -10z m-11 -198
c0 -24 -1 -25 -9 -7 -12 28 -12 47 0 40 6 -3 10 -18 9 -33z m41 14 c0 -3 -4
-8 -10 -11 -5 -3 -10 -1 -10 4 0 6 5 11 10 11 6 0 10 -2 10 -4z m-20 -246 c0
-5 -4 -10 -10 -10 -5 0 -10 5 -10 10 0 6 5 10 10 10 6 0 10 -4 10 -10z m10
-386 c0 -2 -7 -4 -15 -4 -8 0 -15 4 -15 10 0 5 7 7 15 4 8 -4 15 -8 15 -10z
m0 -114 c-8 -5 -19 -10 -25 -10 -5 0 -3 5 5 10 8 5 20 10 25 10 6 0 3 -5 -5
-10z m30 -290 c0 -5 -4 -10 -10 -10 -5 0 -10 5 -10 10 0 6 5 10 10 10 6 0 10
-4 10 -10z m4456 -785 c-1 -8 -5 -17 -8 -21 -5 -4 -4 16 1 34 3 9 9 -1 7 -13z
m-3706 -59 c0 -3 -4 -8 -10 -11 -5 -3 -10 -1 -10 4 0 6 5 11 10 11 6 0 10 -2
10 -4z m3275 -106 c3 -5 1 -10 -4 -10 -6 0 -11 5 -11 10 0 6 2 10 4 10 3 0 8
-4 11 -10z"/>
<path d="M4100 6108 c-19 -5 -46 -18 -60 -29 l-25 -20 35 7 c19 4 94 10 165
13 l130 6 -49 18 c-53 18 -139 21 -196 5z"/>
<path d="M2202 6046 c7 -8 15 -12 17 -11 5 6 -10 25 -20 25 -5 0 -4 -6 3 -14z"/>
<path d="M1970 5560 c0 -5 7 -10 16 -10 8 0 12 5 9 10 -3 6 -10 10 -16 10 -5
0 -9 -4 -9 -10z"/>
<path d="M4945 5256 c-23 -25 -26 -40 -4 -19 12 12 21 24 18 27 -2 2 -9 -1
-14 -8z"/>
<path d="M1825 4479 c-4 -6 -5 -12 -2 -15 2 -3 7 2 10 11 7 17 1 20 -8 4z"/>
<path d="M5429 4093 l-24 -28 28 24 c15 14 27 26 27 28 0 8 -8 1 -31 -24z"/>
<path d="M4920 4016 c0 -2 8 -10 18 -17 15 -13 16 -12 3 4 -13 16 -21 21 -21
13z"/>
<path d="M1805 3490 c3 -5 8 -10 11 -10 2 0 4 5 4 10 0 6 -5 10 -11 10 -5 0
-7 -4 -4 -10z"/>
<path d="M7101 3256 c-19 -14 -52 -51 -74 -82 l-40 -56 -61 61 c-52 52 -67 61
-97 61 -29 0 -38 -5 -47 -25 -15 -33 -15 -41 3 -103 17 -57 51 -101 109 -143
101 -74 202 -9 292 187 44 98 43 118 -11 122 -30 2 -48 -3 -74 -22z"/>
<path d="M1825 2810 c3 -5 8 -10 11 -10 2 0 4 5 4 10 0 6 -5 10 -11 10 -5 0
-7 -4 -4 -10z"/>
<path d="M1931 2584 c0 -11 3 -14 6 -6 3 7 2 16 -1 19 -3 4 -6 -2 -5 -13z"/>
<path d="M7180 2385 c-14 -8 -20 -14 -14 -15 5 0 19 7 30 15 24 18 16 19 -16
0z"/>
<path d="M7085 2350 c-13 -6 -15 -9 -5 -9 8 0 22 4 30 9 18 12 2 12 -25 0z"/>
<path d="M6958 2303 c7 -3 16 -2 19 1 4 3 -2 6 -13 5 -11 0 -14 -3 -6 -6z"/>
<path d="M2278 2093 c7 -3 16 -2 19 1 4 3 -2 6 -13 5 -11 0 -14 -3 -6 -6z"/>
<path d="M6375 2010 c4 -6 11 -8 16 -5 14 9 11 15 -7 15 -8 0 -12 -5 -9 -10z"/>
<path d="M2788 1863 c6 -2 18 -2 25 0 6 3 1 5 -13 5 -14 0 -19 -2 -12 -5z"/>
<path d="M5482 1794 c-7 -8 -8 -14 -3 -14 10 0 25 19 20 25 -2 1 -10 -3 -17
-11z"/>
<path d="M5595 1800 c-3 -5 -1 -10 4 -10 6 0 11 5 11 10 0 6 -2 10 -4 10 -3 0
-8 -4 -11 -10z"/>
<path d="M3215 1770 c-3 -5 -1 -10 4 -10 6 0 11 5 11 10 0 6 -2 10 -4 10 -3 0
-8 -4 -11 -10z"/>
<path d="M5238 1763 c7 -3 16 -2 19 1 4 3 -2 6 -13 5 -11 0 -14 -3 -6 -6z"/>
<path d="M4090 1738 c0 -9 5 -20 10 -23 13 -8 13 5 0 25 -8 13 -10 13 -10 -2z"/>
</g>
</svg>
